<svg width="200" height="36" viewBox="0 0 200 36" fill="none" xmlns="http://www.w3.org/2000/svg">
<path d="M25.6175 25.92H6.1775V36H0.4175V10.8L5.4575 5.76H0.4175V0.719999H25.6175V5.76H6.1775V25.2L10.4975 20.88H25.6175V25.92ZM59.4744 36H54.4344V32.4L50.8344 36H39.3144C37.9224 36 36.7224 35.52 35.7144 34.56C34.7544 33.552 34.2744 32.352 34.2744 30.96V10.8H39.3144V31.68H54.4344V10.8H59.4744V36ZM94.7713 36H89.7313V15.12H74.6113V36H69.5713V10.8H74.6113V14.4L78.2113 10.8H89.7313C91.1233 10.8 92.2993 11.304 93.2593 12.312C94.2673 13.272 94.7713 14.448 94.7713 15.84V36ZM131.508 25.92H112.068V36H106.308V10.8L111.348 5.76H106.308V0.719999H131.508V5.76H112.068V25.2L116.388 20.88H131.508V25.92ZM145.205 6.48H140.165V0.719999H145.205V6.48ZM145.205 36H140.165V14.4L145.205 9.36V36ZM171.842 36H161.762C160.37 36 159.17 35.52 158.162 34.56C157.202 33.552 156.722 32.352 156.722 30.96V15.12H149.522L153.842 10.8H156.722V5.76L161.762 0.719999V10.8H171.842V15.12H161.762V31.68H171.842V36ZM199.568 10.8L195.176 15.12H183.008V20.88H193.088C194.48 20.88 195.656 21.384 196.616 22.392C197.624 23.352 198.128 24.528 198.128 25.92V30.96C198.128 32.352 197.624 33.552 196.616 34.56C195.656 35.52 194.48 36 193.088 36H177.968V31.68H193.088V25.2H183.008C181.616 25.2 180.416 24.72 179.408 23.76C178.448 22.752 177.968 21.552 177.968 20.16V15.84C177.968 14.448 178.448 13.272 179.408 12.312C180.416 11.304 181.616 10.8 183.008 10.8H199.568Z" fill="#060D0B"/>
</svg>
